{"title":"Home.2015.720p.HDRip.XViD.AC3-26k","uid":11957342,"size":2443474563,"categoryP":"video","categoryS":"hd___movies","magnet":"?xt=urn:btih:92684a71298f8592cd79da28124ea357a6b53796&amp;dn=Home.2015.720p.HDRip.XViD.AC3-26k&amp;tr=udp%3A%2F%2Ftracker.openbittorrent.com%3A80&amp;tr=udp%3A%2F%2Fopen.demonii.com%3A1337&amp;tr=udp%3A%2F%2Ftracker.coppersurfer.tk%3A6969&amp;tr=udp%3A%2F%2Fexodus.desync.com%3A6969","seeders":1,"leechers":0,"uploader":null,"files":4,"time":1432427691,"description":"[code]\n\n &lt;a href=&quot;\nhttp://www.imdb.com/title/tt2224026/&quot; rel=&quot;nofollow&quot; target=&quot;_NEW&quot;&gt;\nhttp://www.imdb.com/title/tt2224026/&lt;/a&gt;\n\nPlot:\n\nOh, an alien on the run from his own people, lands on Earth and makes friends with the adventurous Tip, who is on a quest of her own.\n\nSources - VIDEO: RU 1080p WEB-DL ....Thanks :P\n          AUDIO: A Special Friend ....Thanks :P\n\n\nComplete name               : Home.2015.720p.HDRip.XViD.AC3-26k.avi\nFormat                      : AVI\nFormat/Info                 : Audio Video Interleave\nFormat profile              : OpenDML\nFile size                   : 2.23 GiB\nDuration                    : 1h 34mn\nOverall bit rate            : 3 390 Kbps\nWriting library             : VirtualDub build 32839/release\n\nVideo\nID                          : 0\nFormat                      : MPEG-4 Visual\nFormat profile              : Advanced Simple@L5\nFormat settings, BVOP       : 1\nFormat settings, QPel       : No\nFormat settings, GMC        : No warppoints\nFormat settings, Matrix     : Default (H.263)\nCodec ID                    : XVID\nCodec ID/Hint               : XviD\nDuration                    : 1h 34mn\nBit rate                    : 2 997 Kbps\nWidth                       : 1 280 pixels\nHeight                      : 688 pixels\nDisplay aspect ratio        : 1.85:1\nFrame rate                  : 23.976 fps\nColor space                 : YUV\nChroma subsampling          : 4:2:0\nBit depth                   : 8 bits\nScan type                   : Progressive\nCompression mode            : Lossy\nBits/(Pixel*Frame)          : 0.142\nStream size                 : 1.98 GiB (88%)\nWriting library             : XviD 1.2.1 (UTC 2008-12-04)\n\nAudio\nID                          : 1\nFormat                      : AC-3\nFormat/Info                 : Audio Coding 3\nMode extension              : CM (complete main)\nFormat settings, Endianness : Big\nCodec ID                    : 2000\nDuration                    : 1h 33mn\nBit rate mode               : Constant\nBit rate                    : 384 Kbps\nChannel(s)                  : 6 channels\nChannel positions           : Front: L C R, Side: L R, LFE\nSampling rate               : 48.0 KHz\nBit depth                   : 16 bits\nCompression mode            : Lossy\nStream size                 : 258 MiB (11%)\nAlignment                   : Split accross interleaves\nInterleave, duration        : 42 ms (1.01 video frame)\nInterleave, preload duratio : 500 ms\n\n\n\nNotes -\n\nTook the nice 1080p Russian WEB-DL made a script to resize, slight denoise, sharpen and slight other\nadjustments then took the nice LEGIT 5.1 AC3 Studio Audio we got passed to us from our Special Friend and synced ( 3 cuts ) and muxed it to our finished encode\t\n\nenjoy....\n\n[/code]\n\nScreens:\n\n[img]http://i.imgur.com/QMyLwER.jpg[/img]\n[img]http://i.imgur.com/BwWqpM8.jpg[/img]\n[img]http://i.imgur.com/LxVCqim.jpg[/img]\n[img]http://i.imgur.com/ywotkYO.jpg[/img]\n[img]http://i.imgur.com/2zZQsvX.jpg[/img]\n[img]http://i.imgur.com/nFSIpua.jpg[/img]\n\nGreetz:\n\nTo all our people past and present who have helped us out and to the anti piracy agencies a big\nFUCK YOU.. Damn you guys are studid busting a guy and thinking he is the founder and leader of an UNKNOWN group of peole he was just an uploader.. come find us if you can bitches as this upload the the ones to come will not link back to him in any way shape or form.. This is just to prove u guys cant do your job properly and will do ANYTHING to get a conviction of an INNOCENT man.. \n\n\n\n\nAnything to offer email us @: &lt;a class=&quot;__cf_email__&quot; href=&quot;/cdn-cgi/l/email-protection&quot; data-cfemail=&quot;521407111914131106121a07011a1f131b1e7c1f17&quot;&gt;[email&amp;#160;protected]&lt;/a&gt;&lt;script data-cfhash='f9e31' type=&quot;text/javascript&quot;&gt;\n/* &lt;![CDATA[ */!function(){try{var t=&quot;currentScript&quot;in document?document.currentScript:function(){for(var t=document.getElementsByTagName(&quot;script&quot;),e=t.length;e--;)if(t[e].getAttribute(&quot;data-cfhash&quot;))return t[e]}();if(t&amp;&amp;t.previousSibling){var e,r,n,i,c=t.previousSibling,a=c.getAttribute(&quot;data-cfemail&quot;);if(a){for(e=&quot;&quot;,r=parseInt(a.substr(0,2),16),n=2;a.length-n;n+=2)i=parseInt(a.substr(n,2),16)^r,e+=String.fromCharCode(i);e=document.createTextNode(e),c.parentNode.replaceChild(e,c)}t.parentNode.removeChild(t);}}catch(u){}}()/* ]]&gt; */&lt;/script&gt;","torrent":{"xt":"urn:btih:92684a71298f8592cd79da28124ea357a6b53796","amp;dn":"Home.2015.720p.HDRip.XViD.AC3-26k","amp;tr":["udp%3A%2F%2Ftracker.openbittorrent.com%3A80","udp%3A%2F%2Fopen.demonii.com%3A1337","udp%3A%2F%2Ftracker.coppersurfer.tk%3A6969","udp%3A%2F%2Fexodus.desync.com%3A6969"],"infoHash":"92684a71298f8592cd79da28124ea357a6b53796","infoHashBuffer":{"type":"Buffer","data":[146,104,74,113,41,143,133,146,205,121,218,40,18,78,163,87,166,181,55,150]},"announce":[],"urlList":[]}}